# xmcd
#
# Track frame offsets:
#	150
#	14493
#	36290
#	50397
#	71817
#	87686
#	100316
#	114374
#	126704
#	138477
#	149101
#	166196
#	184071
#	196241
#	212054
#	223772
#	238122
#
# Disc length: 3321 seconds
#
# Revision: 0
# Processed by: cddbd v1.5.2PL0 Copyright (c) Steve Scherf et al.
# Submitted via: EasyCDDAExtractor 10.2.0.1
#
DISCID=120cf711
DTITLE=Various Artist - Circuit Rider Records Vol. 32
DYEAR=2000
DGENRE=Gospel
TTITLE0=Gary Smith - I Found Jesus In Nashville
TTITLE1=Debbie White and WC Taylor - His Eye Is On The Sparrow
TTITLE2=Lyle Stubbs - When I See Jesus
TTITLE3=Carole Gaddis - At The Feet Of God
TTITLE4=Sharon Marsh - Reach Up And Touch God's Hands
TTITLE5=Kenny And Harriet Robbins - I Can Feel My Mountains Move
TTITLE6=Marvin Morrow - Knee Bent And Heaven Bound
TTITLE7=Dawn Summersett - Stepping Stone
TTITLE8=Jackie Robbins - Cowboy's Partner
TTITLE9=See The Light - Personal Friend
TTITLE10=Charley Kyle - Lord, It's Me Again
TTITLE11=Ray Kiker - I Found The Nail
TTITLE12=Them Bowmans - He Hauled Steel
TTITLE13=Weldon Kieth - The Dream
TTITLE14=The Flowers Family - God Has Been So Good To Me
TTITLE15=Pat Cole - Jesus Is My Rock
TTITLE16=Liz Cooper - Show Me How
EXTD=
EXTT0=
EXTT1=
EXTT2=
EXTT3=
EXTT4=
EXTT5=
EXTT6=
EXTT7=
EXTT8=
EXTT9=
EXTT10=
EXTT11=
EXTT12=
EXTT13=
EXTT14=
EXTT15=
EXTT16=
PLAYORDER=
